<?xml version="1.0" encoding="iso-8859-1"?>
<!-- Generator: Adobe Illustrator 19.0.0, SVG Export Plug-In . SVG Version: 6.00 Build 0)  -->
<svg version="1.1" id="Capa_1" xmlns="http://www.w3.org/2000/svg" xmlns:xlink="http://www.w3.org/1999/xlink" x="0px" y="0px"
	 viewBox="0 0 512 512" style="enable-background:new 0 0 512 512;" xml:space="preserve">
<g>
	<g>
		<circle cx="104.727" cy="69.818" r="11.636"/>
	</g>
</g>
<g>
	<g>
		<circle cx="151.273" cy="69.818" r="11.636"/>
	</g>
</g>
<g>
	<g>
		<path d="M395.636,465.455h-72.145c-4.655-13.964-17.455-23.273-32.582-23.273h-23.273v-34.909c0-6.982-4.655-11.636-11.636-11.636
			s-11.636,4.655-11.636,11.636v34.909h-23.273c-15.127,0-27.927,9.309-32.582,23.273h-72.145c-6.982,0-11.636,4.655-11.636,11.636
			s4.655,11.636,11.636,11.636h72.145C193.164,502.691,205.964,512,221.091,512h69.818c15.127,0,27.927-9.309,32.582-23.273h72.145
			c6.982,0,11.636-4.655,11.636-11.636S402.618,465.455,395.636,465.455z M290.909,488.727h-69.818
			c-6.982,0-11.636-4.655-11.636-11.636s4.655-11.636,11.636-11.636h69.818c6.982,0,11.636,4.655,11.636,11.636
			S297.891,488.727,290.909,488.727z"/>
	</g>
</g>
<g>
	<g>
		<circle cx="104.727" cy="302.545" r="11.636"/>
	</g>
</g>
<g>
	<g>
		<circle cx="151.273" cy="302.545" r="11.636"/>
	</g>
</g>
<g>
	<g>
		<circle cx="104.727" cy="186.182" r="11.636"/>
	</g>
</g>
<g>
	<g>
		<circle cx="151.273" cy="186.182" r="11.636"/>
	</g>
</g>
<g>
	<g>
		<path d="M465.455,93.091c6.982,0,11.636-4.655,11.636-11.636V34.909C477.091,15.127,461.964,0,442.182,0H69.818
			C50.036,0,34.909,15.127,34.909,34.909V128v69.818c0,6.982,4.655,11.636,11.636,11.636s11.636-4.655,11.636-11.636v-58.182
			h395.636v93.091H46.545c-6.982,0-11.636,4.655-11.636,11.636v93.091c0,19.782,15.127,34.909,34.909,34.909h372.364
			c19.782,0,34.909-15.127,34.909-34.909v-46.545c0-6.982-4.655-11.636-11.636-11.636c-6.982,0-11.636,4.655-11.636,11.636v46.545
			c0,6.982-4.655,11.636-11.636,11.636H69.818c-6.982,0-11.636-4.655-11.636-11.636V256h407.273c6.982,0,11.636-4.655,11.636-11.636
			V128c0-3.491-1.164-5.818-3.491-8.145s-4.655-3.491-8.145-3.491H58.182V34.909c0-6.982,4.655-11.636,11.636-11.636h372.364
			c6.982,0,11.636,4.655,11.636,11.636v46.545C453.818,88.436,458.473,93.091,465.455,93.091z"/>
	</g>
</g>
<g>
	<g>
		<path d="M232.727,279.273c-6.982,0-11.636,4.655-11.636,11.636v23.273c0,6.982,4.655,11.636,11.636,11.636
			s11.636-4.655,11.636-11.636v-23.273C244.364,283.927,239.709,279.273,232.727,279.273z"/>
	</g>
</g>
<g>
	<g>
		<path d="M267.636,279.273c-6.982,0-11.636,4.655-11.636,11.636v23.273c0,6.982,4.655,11.636,11.636,11.636
			s11.636-4.655,11.636-11.636v-23.273C279.273,283.927,274.618,279.273,267.636,279.273z"/>
	</g>
</g>
<g>
	<g>
		<path d="M302.545,279.273c-6.982,0-11.636,4.655-11.636,11.636v23.273c0,6.982,4.655,11.636,11.636,11.636
			s11.636-4.655,11.636-11.636v-23.273C314.182,283.927,309.527,279.273,302.545,279.273z"/>
	</g>
</g>
<g>
	<g>
		<path d="M337.454,279.273c-6.982,0-11.636,4.655-11.636,11.636v23.273c0,6.982,4.655,11.636,11.636,11.636
			c6.982,0,11.636-4.655,11.636-11.636v-23.273C349.091,283.927,344.436,279.273,337.454,279.273z"/>
	</g>
</g>
<g>
	<g>
		<path d="M372.364,279.273c-6.982,0-11.636,4.655-11.636,11.636v23.273c0,6.982,4.655,11.636,11.636,11.636
			S384,321.164,384,314.182v-23.273C384,283.927,379.345,279.273,372.364,279.273z"/>
	</g>
</g>
<g>
	<g>
		<path d="M407.273,279.273c-6.982,0-11.636,4.655-11.636,11.636v23.273c0,6.982,4.655,11.636,11.636,11.636
			c6.982,0,11.636-4.655,11.636-11.636v-23.273C418.909,283.927,414.254,279.273,407.273,279.273z"/>
	</g>
</g>
<g>
	<g>
		<path d="M232.727,162.909c-6.982,0-11.636,4.655-11.636,11.636v23.273c0,6.982,4.655,11.636,11.636,11.636
			s11.636-4.655,11.636-11.636v-23.273C244.364,167.564,239.709,162.909,232.727,162.909z"/>
	</g>
</g>
<g>
	<g>
		<path d="M267.636,162.909c-6.982,0-11.636,4.655-11.636,11.636v23.273c0,6.982,4.655,11.636,11.636,11.636
			s11.636-4.655,11.636-11.636v-23.273C279.273,167.564,274.618,162.909,267.636,162.909z"/>
	</g>
</g>
<g>
	<g>
		<path d="M302.545,162.909c-6.982,0-11.636,4.655-11.636,11.636v23.273c0,6.982,4.655,11.636,11.636,11.636
			s11.636-4.655,11.636-11.636v-23.273C314.182,167.564,309.527,162.909,302.545,162.909z"/>
	</g>
</g>
<g>
	<g>
		<path d="M337.454,162.909c-6.982,0-11.636,4.655-11.636,11.636v23.273c0,6.982,4.655,11.636,11.636,11.636
			c6.982,0,11.636-4.655,11.636-11.636v-23.273C349.091,167.564,344.436,162.909,337.454,162.909z"/>
	</g>
</g>
<g>
	<g>
		<path d="M372.364,162.909c-6.982,0-11.636,4.655-11.636,11.636v23.273c0,6.982,4.655,11.636,11.636,11.636S384,204.8,384,197.818
			v-23.273C384,167.564,379.345,162.909,372.364,162.909z"/>
	</g>
</g>
<g>
	<g>
		<path d="M407.273,162.909c-6.982,0-11.636,4.655-11.636,11.636v23.273c0,6.982,4.655,11.636,11.636,11.636
			c6.982,0,11.636-4.655,11.636-11.636v-23.273C418.909,167.564,414.254,162.909,407.273,162.909z"/>
	</g>
</g>
<g>
	<g>
		<path d="M232.727,46.545c-6.982,0-11.636,4.655-11.636,11.636v23.273c0,6.982,4.655,11.636,11.636,11.636
			s11.636-4.655,11.636-11.636V58.182C244.364,51.2,239.709,46.545,232.727,46.545z"/>
	</g>
</g>
<g>
	<g>
		<path d="M267.636,46.545C260.655,46.545,256,51.2,256,58.182v23.273c0,6.982,4.655,11.636,11.636,11.636
			s11.636-4.655,11.636-11.636V58.182C279.273,51.2,274.618,46.545,267.636,46.545z"/>
	</g>
</g>
<g>
	<g>
		<path d="M302.545,46.545c-6.982,0-11.636,4.655-11.636,11.636v23.273c0,6.982,4.655,11.636,11.636,11.636
			s11.636-4.655,11.636-11.636V58.182C314.182,51.2,309.527,46.545,302.545,46.545z"/>
	</g>
</g>
<g>
	<g>
		<path d="M337.454,46.545c-6.982,0-11.636,4.655-11.636,11.636v23.273c0,6.982,4.655,11.636,11.636,11.636
			c6.982,0,11.636-4.655,11.636-11.636V58.182C349.091,51.2,344.436,46.545,337.454,46.545z"/>
	</g>
</g>
<g>
	<g>
		<path d="M372.364,46.545c-6.982,0-11.636,4.655-11.636,11.636v23.273c0,6.982,4.655,11.636,11.636,11.636S384,88.436,384,81.455
			V58.182C384,51.2,379.345,46.545,372.364,46.545z"/>
	</g>
</g>
<g>
	<g>
		<path d="M407.273,46.545c-6.982,0-11.636,4.655-11.636,11.636v23.273c0,6.982,4.655,11.636,11.636,11.636
			c6.982,0,11.636-4.655,11.636-11.636V58.182C418.909,51.2,414.254,46.545,407.273,46.545z"/>
	</g>
</g>
</svg>
